<?xml version="1.0" encoding="utf-8"?>
<!-- Uploaded to: SVG Repo, www.svgrepo.com, Generator: SVG Repo Mixer Tools -->
<svg width="800px" height="800px" viewBox="0 0 1024 1024" class="icon"  version="1.1" xmlns="http://www.w3.org/2000/svg"><path d="M714.705745 561.720895c0 111.6035-90.618971 204.203689-202.46206 204.203689s-203.886285-89.748668-203.886285-201.591757c0-111.84309 90.458221-201.591758 201.037836-201.591758v90.759243c-56.313693 0-110.278593 49.987105-110.278593 111.702817 0 61.715712 50.698706 109.962212 112.415441 109.962212 61.715712 0 112.415441-49.963556 112.415442-113.444446H714.705745z" fill="#E0E0E0" /><path d="M121.282288 621.05505c-30.796423 0-55.851921-25.055498-55.85192-55.851921s25.055498-55.851921 55.85192-55.85192 55.851921 25.055498 55.851921 55.85192-25.055498 55.851921-55.851921 55.851921z m0-83.777369c-15.398211 0-27.925448 12.524165-27.925448 27.925448s12.527237 27.925448 27.925448 27.925449c15.398211 0 27.925448-12.524165 27.925449-27.925449s-12.527237-27.925448-27.925449-27.925448zM903.204057 621.05505c-30.796423 0-55.851921-25.055498-55.85192-55.851921s25.055498-55.851921 55.85192-55.85192 55.851921 25.055498 55.851921 55.85192-25.055498 55.851921-55.851921 55.851921z m0-83.777369c-15.401283 0-27.925448 12.524165-27.925448 27.925448s12.524165 27.925448 27.925448 27.925449 27.925448-12.524165 27.925448-27.925449-12.523141-27.925448-27.925448-27.925448zM428.466316 160.62713c-5.751164 0-11.136801-3.58667-13.165118-9.313261-2.569952-7.274705 1.240949-15.251796 8.511559-17.821748a264.247396 264.247396 0 0 1 44.384405-11.460349c7.632041-1.261427 14.808453 3.866191 16.076023 11.467516 1.271666 7.608492-3.862095 14.801286-11.467515 16.076024a236.482698 236.482698 0 0 0-39.686819 10.247044 13.886957 13.886957 0 0 1-4.652535 0.804774zM595.039148 160.280033c-1.527637 0-3.074728-0.251876-4.595198-0.784297a236.411026 236.411026 0 0 0-38.759179-9.920424c-7.608492-1.268594-12.742253-8.467532-11.474683-16.069881 1.26757-7.608492 8.488009-12.74942 16.069881-11.474682a264.637497 264.637497 0 0 1 43.354376 11.092773c7.281872 2.543331 11.126562 10.499944 8.590398 17.780793-2.010911 5.762427-7.410882 9.375718-13.185595 9.375718zM564.684019 548.410386h146.415602v27.644904h-146.415602zM495.059817 358.991601h26.621019v148.463372h-26.621019z" fill="#FFB612" /><path d="M231.148255 382.779529c40.780329-62.724239 102.025053-110.543779 172.449934-134.652183l13.887981-4.759019-5.443999-13.628938c-20.235046-50.677204-68.597245-83.423105-123.205145-83.423104-73.141248 0-132.647415 59.506167-132.647415 132.647415 0 42.508647 20.596477 82.713552 55.095269 107.537652l11.883213 8.55661 7.980162-12.278433z m-32.489929-50.867647c9.450462-12.676724 19.608428-24.930584 30.474923-36.332571a392.063097 392.063097 0 0 1 87.639464-69.037516l-13.983201-24.17598a420.100149 420.100149 0 0 0-93.874926 73.946022c-7.724191 8.110196-15.124834 16.617659-22.219336 25.367783-1.655623-7.398595-2.581215-14.998896-2.581215-22.71592 0-57.747132 46.977906-104.721967 104.721967-104.721967 38.244165 0 72.60678 20.337434 91.031597 52.851937-65.291119 25.607372-122.423921 70.230342-163.334283 127.554609-7.046379-6.72795-12.993105-14.427568-17.87499-22.736397z" fill="#262626" /><path d="M812.445838 565.204153c0-165.529493-134.672661-300.202153-300.202153-300.202153-165.533588 0-300.202153 134.672661-300.202154 300.202153 0 83.112867 33.966372 158.430896 88.727855 212.844258l-33.967396 58.975794c-19.280785 33.468763-7.792791 76.434063 25.607372 95.762971 10.785608 6.244677 22.757899 9.436127 34.894012 9.436127 6.064473 0 12.172973-0.797607 18.186251-2.407154 18.080791-4.84093 33.189243-16.457933 42.543459-32.697778l32.337371-56.1468a298.979634 298.979634 0 0 0 91.87323 14.434735c32.03942 0 62.898299-5.096901 91.872206-14.434735l32.334299 56.1468c9.354216 16.239845 24.462668 27.850705 42.543459 32.697778a70.357304 70.357304 0 0 0 18.190346 2.407154c12.136113 0 24.10738-3.190427 34.894012-9.436127 33.400163-19.328907 44.888157-62.294207 25.614539-95.762971l-33.970467-58.97989c54.758411-54.413362 88.723759-129.730366 88.723759-212.840162z m-575.698978 0c0-145.453149 118.041691-264.630329 258.313981-271.922441v65.710913h26.621019v-65.710913c70.648087 3.277457 125.529365 29.170493 170.60182 69.876078l-47.881997 49.013391 20.309789 19.744604 49.295983-50.4284c40.706609 45.071432 66.881213 103.443134 70.15867 166.924025h-73.06548v27.644904h73.06548c-3.277457 63.48089-29.170493 124.822884-69.876077 169.894316l-49.013391-48.235238-19.744605 20.133681 46.750604 49.207929c-45.071432 40.706609-99.953733 66.793159-170.60182 70.070616v-72.675381h-26.621019v72.675381c-140.27229-7.294159-258.312957-126.471339-258.312957-271.923465z m101.519254 347.633641c-10.836802 2.910906-22.147663 1.410914-31.866383-4.220455-20.101941-11.631337-27.012143-37.497752-15.401283-57.658054l6.242629-10.839874c22.240837 17.436767 46.351289 32.024061 72.066169 43.563249l-5.47062 9.499608c-5.628298 9.762747-14.709137 16.750764-25.570512 19.655526z m45.033548-53.449885c-25.830579-11.323148-49.933863-25.964708-71.987329-43.698402l10.644312-18.48113a300.634233 300.634233 0 0 0 71.912586 43.829459l-10.569569 18.350073z m334.786952 49.236597c-9.708481 5.618059-21.032652 7.118051-31.866383 4.213288-10.867519-2.910906-19.942214-9.89278-25.566416-19.655526l-5.47062-9.498585a347.861967 347.861967 0 0 0 72.070265-43.548914l6.234437 10.824516c11.61086 20.160302 4.697586 46.026717-15.401283 57.665221z m-4.920793-92.949334c-22.01763 17.693762-46.145488 32.369111-71.976066 43.709665l-10.567521-18.350073a300.669045 300.669045 0 0 0 71.907467-43.827411l10.63612 18.467819z" fill="#262626" /><path d="M735.649319 146.317308c-54.610972 0-102.969075 32.7459-123.205145 83.423105l-5.440926 13.628938 13.88798 4.759019c70.421809 24.10738 131.665509 71.927944 172.449934 134.652183l7.983234 12.278432 11.877069-8.556609c34.497768-24.830243 55.095269-65.027981 55.09527-107.537652 0-73.142272-59.505143-132.647415-132.647416-132.647416z m72.30371 208.331995c-40.90729-57.324268-98.040092-101.947238-163.334282-127.55461 18.421745-32.514502 52.783336-52.851937 91.031596-52.851936 57.747132 0 104.721967 46.974835 104.721967 104.721967 0 8.19825-1.07508 16.256227-2.938551 24.087926-7.422145-9.23647-15.193434-18.207753-23.323083-26.739789a420.063289 420.063289 0 0 0-93.88107-73.946022l-13.977058 24.17598a392.109172 392.109172 0 0 1 87.636392 69.037516c11.177756 11.726559 21.624458 24.327515 31.287888 37.382053-4.768234 7.898251-10.478442 15.245652-17.223799 21.686915zM512.243685 188.205481c30.796423 0 55.851921-25.055498 55.85192-55.851921s-25.055498-55.851921-55.85192-55.85192-55.851921 25.055498-55.851921 55.85192 25.055498 55.851921 55.851921 55.851921z m0-83.777369c15.401283 0 27.925448 12.524165 27.925448 27.925448s-12.524165 27.925448-27.925448 27.925449c-15.398211 0-27.925448-12.524165-27.925449-27.925449s12.527237-27.925448 27.925449-27.925448zM512.243685 635.018798c38.492969 0 69.814645-31.320652 69.814644-69.814645s-31.320652-69.814645-69.814644-69.814645c-38.497064 0-69.814645 31.320652-69.814645 69.814645s31.31758 69.814645 69.814645 69.814645z m0-111.703841c23.098853 0 41.888173 18.790343 41.888172 41.888172 0 23.098853-18.790343 41.888173-41.888172 41.888173-23.098853 0-41.888173-18.790343-41.888173-41.888173-0.001024-23.097829 18.78932-41.888173 41.888173-41.888172z" fill="#262626" /></svg>